<?xml version="1.0"?>
<svg xmlns="http://www.w3.org/2000/svg" viewBox="0 0 24 24" enable-background="new 0 0 24 24">
    <path d="M 22 2 L 16.6875 2.8125 L 18.25 4.375 L 15.1875 7.40625 L 14.28125 6.5625 L 13.5625 5.90625 L 12.875 6.59375 L 9.5 10.0625 L 8.71875 9.28125 L 8 8.59375 L 7.3125 9.28125 L 2.3125 14.1875 L 3.6875 15.625 L 7.96875 11.40625 L 8.78125 12.21875 L 9.5 12.9375 L 10.21875 12.1875 L 13.625 8.6875 L 14.53125 9.53125 L 15.21875 10.1875 L 15.90625 9.5 L 19.625 5.75 L 21.1875 7.3125 L 22 2 z M 19 10 L 19 22 L 21 22 L 21 10 L 19 10 z M 15 12 L 15 22 L 17 22 L 17 12 L 15 12 z M 11 14 L 11 22 L 13 22 L 13 14 L 11 14 z M 7 16 L 7 22 L 9 22 L 9 16 L 7 16 z M 3 18 L 3 22 L 5 22 L 5 18 L 3 18 z"/>
</svg>
