<?xml version="1.0"?>
<svg xmlns="http://www.w3.org/2000/svg" viewBox="0 0 24 24" enable-background="new 0 0 24 24">
    <path style="text-indent:0;text-align:start;line-height:normal;text-transform:none;block-progression:tb;-inkscape-font-specification:Bitstream Vera Sans" d="M 4.40625 2 L 3 3.40625 L 7.6875 8.09375 L 8.40625 8.8125 L 9.09375 8.09375 L 9.875 7.3125 L 12.90625 10.3125 L 13.5625 11 L 14.28125 10.34375 L 15.1875 9.5 L 18.25 12.5625 L 16.6875 14.1875 L 22 14.90625 L 21.1875 9.59375 L 19.65625 11.15625 L 15.90625 7.40625 L 15.21875 6.71875 L 14.53125 7.375 L 13.625 8.21875 L 10.59375 5.1875 L 9.90625 4.5 L 9.1875 5.1875 L 8.375 6 L 4.40625 2 z M 3 8 L 3 22 L 5 22 L 5 8 L 3 8 z M 7 11 L 7 22 L 9 22 L 9 11 L 7 11 z M 11 13 L 11 22 L 13 22 L 13 13 L 11 13 z M 15 16 L 15 22 L 17 22 L 17 16 L 15 16 z M 19 18 L 19 22 L 21 22 L 21 18 L 19 18 z"/>
</svg>
